<svg xmlns="http://www.w3.org/2000/svg" width="44" height="44" viewBox="0 0 44 44">
    <path fill="#F4F7FA" fill-rule="nonzero" d="M6.875 12.178c.016-.02-4.252 8.007-4.418 9.297a10.105 10.105 0 0 0 .264 3.758c.345 1.21.904 2.348 1.648 3.362a9.794 9.794 0 0 0 2.902 2.571 9.231 9.231 0 0 0 7.118.784 10.157 10.157 0 0 0 3.23-1.78 10.347 10.347 0 0 0 2.44-2.968l3.627-5.201a1.956 1.956 0 0 1 1.252-.922 2.066 2.066 0 0 1 1.525.2c.434.264.743.692.857 1.187.166.51.093 1.066-.198 1.516l-4.549 6.989c-.466.748-.146 1.343.731 1.315h6.724a2.177 2.177 0 0 0 1.385-.528c-.018.028 10.086-8.85 10.086-10.086 0-1.185-9.522-8.288-10.681-8.967a9.895 9.895 0 0 0-3.693-1.252 10.105 10.105 0 0 0-3.758.263c-1.199.314-2.093.86-3.165 1.649a9.415 9.415 0 0 0-2.51 2.898l-4.35 7.055c-.24.425-.551.805-.922 1.121-.35.215-.76.2-1.253-.066a2.134 2.134 0 0 1-.93-1.194 2.288 2.288 0 0 1 .197-1.516l5.077-8.835c.464-.763.107-1.377-.79-1.384H8.062a1.491 1.491 0 0 0-1.188.734zm11.209-.132a3.646 3.646 0 0 1-.462 1.978l-5.07 8.835a1.207 1.207 0 0 0 0-.132c.028-.07.024-.125 0-.131a.12.12 0 0 0-.067-.132c-.035-.089-.083-.131-.131-.131a1.28 1.28 0 0 0-.396-.132c-.326 0-.646.09-.923.263 0 .016.025 0 .066-.065a1.9 1.9 0 0 0 .197-.264l4.348-7.121 2.046 1.252-2.046-1.187a11.458 11.458 0 0 1 2.44-3.033 6.07 6.07 0 0 1 .73-.593c1.42-1.063 2.523-1.658 3.956-2.047a12.97 12.97 0 0 1 4.62-.33c1.629.216 3.197.753 4.616 1.581.792.455 3.675 2.582 6.065 4.482a107.44 107.44 0 0 1 3.56 2.968c.517.527.946.965 1.253 1.315.213.24.392.506.534.793.302.423.463.93.462 1.45a2.815 2.815 0 0 1-.396 1.45 6.34 6.34 0 0 1-.462.73c-.281.362-.668.81-1.122 1.316-.842.89-1.936 1.974-3.23 3.231-.214.172-.4.35-.594.528-1.116 1.05-2.314 2.146-3.493 3.23a27.13 27.13 0 0 0-1.187 1.056c-.107.077-.217.172-.33.263a.311.311 0 0 1-.066.066 4.605 4.605 0 0 1-2.968 1.12H23.31c-2.164.026-3.527-1.634-3.296-3.493a3.78 3.78 0 0 1 .593-1.45l4.54-7.055 1.978 1.316-2.046-1.187a.212.212 0 0 0 0 .132c-.041.074-.037.131 0 .131-.02.063 0 .116.065.197.032.042.08.066.132.066.035.048.064.056.066.066h.197c0-.016.054-.04.132-.066a.317.317 0 0 1 .131-.131l-.066.065-3.695 5.342-1.978-1.384 2.047 1.186a.561.561 0 0 0 0 .132A13.115 13.115 0 0 1 20 31.153a5.894 5.894 0 0 1-.922.857 11.532 11.532 0 0 1-3.956 2.175 10.86 10.86 0 0 1-4.483.462 11.032 11.032 0 0 1-4.549-1.45 11.746 11.746 0 0 1-3.627-3.23A12.066 12.066 0 0 1 .09 21.195c.146-.96.84-2.535 2.243-5.34.076-.174.146-.325.197-.462.52-.986 1.045-2.009 1.582-3.032.17-.348.34-.673.462-.99.077-.078.143-.167.197-.263.025-.07.026-.073 0-.066A3.899 3.899 0 0 1 8.066 9.07h6.659c1.95.016 3.265 1.339 3.362 2.975l-.003.001z"/>
</svg>
